<svg xmlns="http://www.w3.org/2000/svg" viewBox="0 0 3534 3534" width="512" height="512">
  <title>WinRise OS</title>
  <g transform="translate(243.0,395.0) translate(0.000000,2744.000000) scale(0.100000,-0.100000)" fill="#11110f">
    <path d="M96 24631 c-25 -27 -19 -64 17 -107 19 -21 39 -54 45 -72 6 -18 24
-50 40 -70 16 -20 35 -55 42 -77 7 -22 23 -55 37 -73 13 -17 33 -57 43 -87 11
-31 28 -67 39 -81 11 -14 27 -49 37 -77 9 -29 29 -72 44 -97 16 -25 33 -64 39
-87 7 -23 23 -56 37 -73 14 -17 32 -52 40 -77 8 -26 25 -63 39 -83 13 -19 31
-55 40 -80 9 -24 28 -65 44 -90 16 -25 34 -61 40 -81 6 -20 22 -51 36 -69 13
-18 34 -61 45 -95 12 -35 29 -70 40 -80 11 -10 27 -40 36 -69 9 -28 29 -69 45
-91 15 -22 32 -58 38 -80 6 -22 22 -56 35 -74 14 -19 33 -57 42 -85 9 -28 28
-67 40 -86 13 -19 31 -56 40 -83 9 -26 31 -71 50 -98 19 -28 34 -59 34 -69 0
-10 16 -41 35 -70 19 -28 39 -67 44 -86 5 -19 23 -56 39 -82 16 -26 35 -65 42
-87 7 -22 25 -60 40 -85 15 -25 33 -63 40 -85 7 -22 23 -55 37 -73 13 -18 32
-54 40 -80 9 -26 29 -65 44 -87 16 -22 35 -63 44 -91 8 -28 24 -59 35 -69 11
-10 29 -48 40 -85 11 -37 29 -75 40 -85 11 -10 29 -48 40 -85 11 -37 29 -75
40 -85 11 -10 28 -44 36 -74 9 -31 27 -71 41 -89 13 -18 32 -54 40 -80 9 -26
29 -63 44 -82 15 -19 32 -54 38 -76 6 -23 24 -58 40 -77 16 -20 33 -56 39 -80
6 -24 24 -60 40 -80 16 -20 35 -57 41 -83 7 -25 25 -63 41 -83 16 -20 32 -53
36 -74 3 -22 22 -59 40 -83 19 -24 34 -48 34 -52 0 -27 25 -85 50 -117 16 -20
36 -60 44 -89 9 -29 24 -61 35 -70 11 -10 30 -47 41 -81 11 -34 29 -70 40 -80
11 -10 26 -39 35 -65 8 -26 28 -64 44 -86 16 -21 34 -59 41 -84 6 -25 23 -60
37 -79 14 -18 32 -53 39 -78 8 -25 27 -66 44 -91 17 -25 35 -64 41 -85 6 -22
26 -62 45 -89 19 -28 34 -58 34 -68 0 -10 15 -40 34 -68 19 -27 40 -69 46 -93
7 -24 23 -59 36 -77 14 -17 32 -56 41 -85 8 -28 26 -67 40 -85 13 -18 31 -53
40 -78 8 -25 31 -68 49 -96 19 -27 34 -58 34 -67 0 -9 14 -39 31 -67 18 -27
40 -73 50 -101 10 -29 29 -68 42 -85 14 -18 30 -50 36 -72 5 -21 22 -55 36
-76 14 -20 34 -59 44 -86 10 -27 30 -66 44 -88 15 -21 32 -57 38 -80 6 -22 22
-56 35 -73 14 -18 32 -52 40 -75 8 -24 26 -59 40 -79 13 -20 33 -59 43 -87 10
-27 30 -65 43 -84 14 -18 32 -54 41 -81 9 -26 25 -59 37 -74 11 -14 27 -49 35
-78 9 -28 26 -67 40 -85 13 -18 32 -56 41 -84 9 -28 27 -66 41 -84 13 -17 33
-57 43 -88 11 -30 31 -69 44 -85 14 -17 30 -47 36 -67 5 -20 23 -57 40 -82 17
-25 35 -62 41 -84 6 -21 21 -55 34 -75 13 -20 31 -56 40 -81 9 -24 29 -65 45
-90 17 -26 36 -67 44 -92 7 -25 25 -61 39 -79 14 -19 30 -52 36 -74 6 -22 24
-58 40 -80 16 -22 34 -60 41 -85 7 -25 25 -61 40 -80 15 -19 33 -54 39 -77 6
-23 23 -55 37 -72 13 -16 33 -55 44 -86 11 -31 31 -70 45 -87 14 -16 30 -50
36 -74 6 -24 24 -62 40 -84 16 -22 33 -58 38 -81 5 -23 23 -60 39 -83 17 -23
35 -62 42 -86 7 -25 25 -63 41 -85 16 -22 34 -58 40 -80 6 -22 24 -56 40 -76
16 -21 32 -52 35 -71 8 -41 28 -80 48 -98 9 -7 24 -38 32 -69 9 -30 29 -71 44
-91 15 -19 35 -56 43 -82 9 -26 27 -62 40 -80 13 -18 31 -53 39 -78 8 -25 27
-62 42 -84 14 -21 31 -57 37 -80 6 -22 24 -59 39 -81 16 -22 33 -59 39 -81 6
-23 24 -58 40 -78 16 -20 33 -51 36 -69 4 -18 24 -61 45 -97 21 -36 41 -78 45
-95 3 -16 18 -45 31 -63 14 -18 32 -54 41 -80 9 -26 27 -62 41 -80 13 -19 33
-57 43 -84 10 -28 27 -61 39 -73 11 -11 29 -48 40 -80 11 -32 29 -68 40 -80
11 -12 29 -47 39 -78 11 -31 31 -72 45 -90 14 -18 29 -52 35 -76 5 -24 22 -62
38 -85 16 -22 35 -61 42 -86 7 -25 24 -60 37 -77 14 -18 31 -53 39 -78 7 -25
27 -67 43 -93 17 -26 35 -64 41 -86 5 -21 22 -55 36 -76 14 -20 34 -60 44 -88
10 -27 30 -65 43 -84 14 -18 31 -49 37 -68 6 -19 23 -52 37 -73 14 -22 32 -57
40 -80 8 -23 27 -62 43 -87 16 -25 34 -61 40 -81 6 -20 22 -51 36 -69 13 -18
32 -56 41 -84 9 -28 27 -66 41 -84 13 -17 33 -58 44 -89 10 -31 28 -66 39 -78
11 -12 28 -46 39 -77 10 -30 31 -73 45 -95 14 -21 33 -61 41 -89 8 -28 24 -59
34 -69 11 -9 28 -40 37 -69 9 -28 27 -65 40 -82 13 -17 32 -53 42 -80 10 -27
33 -71 50 -98 18 -28 32 -58 32 -67 0 -9 15 -39 33 -65 19 -27 41 -72 51 -100
9 -29 25 -59 36 -69 11 -10 27 -40 36 -69 9 -28 27 -68 41 -90 14 -21 33 -63
43 -92 11 -30 30 -69 44 -86 13 -18 30 -53 36 -78 7 -25 25 -61 40 -80 15 -19
33 -53 39 -75 6 -22 24 -58 40 -80 16 -22 34 -59 40 -81 6 -23 23 -59 37 -80
15 -22 34 -59 42 -84 8 -25 26 -60 39 -78 13 -18 31 -54 40 -80 8 -26 28 -63
43 -82 15 -19 33 -53 40 -75 7 -22 24 -55 38 -74 13 -18 31 -54 39 -79 7 -26
25 -64 39 -86 14 -21 34 -63 44 -92 11 -30 30 -69 43 -86 14 -18 32 -58 41
-89 8 -30 25 -64 36 -74 11 -10 27 -41 35 -69 9 -28 28 -69 44 -91 16 -22 34
-61 41 -85 6 -25 23 -60 37 -78 13 -18 32 -54 40 -80 9 -26 29 -63 44 -82 15
-19 32 -53 38 -75 6 -22 24 -58 40 -80 16 -22 34 -59 40 -81 6 -23 24 -58 40
-77 16 -20 34 -57 40 -83 7 -25 25 -63 41 -83 15 -20 34 -56 40 -80 6 -24 24
-60 40 -80 16 -20 33 -53 39 -74 5 -21 24 -60 40 -86 17 -27 38 -70 46 -98 8
-27 24 -58 35 -68 11 -10 27 -43 36 -72 9 -29 27 -66 40 -82 14 -16 33 -55 44
-85 10 -31 30 -71 43 -88 14 -18 30 -51 37 -73 7 -22 26 -58 42 -80 15 -22 33
-58 39 -80 6 -22 24 -58 39 -80 16 -22 33 -59 39 -81 6 -23 24 -58 40 -77 16
-20 34 -58 40 -83 7 -26 25 -66 41 -88 16 -23 36 -62 44 -88 7 -26 23 -60 35
-77 12 -17 30 -55 41 -86 10 -30 30 -70 43 -87 13 -18 31 -54 41 -79 9 -26 25
-54 36 -64 10 -9 29 -46 40 -80 11 -34 30 -71 40 -80 11 -10 29 -42 40 -72 11
-30 31 -69 44 -86 13 -18 29 -50 35 -73 6 -22 24 -60 40 -85 16 -24 34 -63 40
-86 6 -23 23 -56 37 -73 14 -16 32 -53 39 -81 7 -27 26 -66 41 -86 14 -19 33
-55 40 -79 7 -25 27 -64 43 -87 17 -23 37 -64 45 -90 8 -27 22 -57 30 -66 9
-10 27 -46 40 -79 14 -34 34 -73 45 -88 11 -14 27 -49 37 -77 9 -29 27 -67 41
-85 13 -17 30 -54 38 -80 8 -26 26 -63 39 -81 14 -19 31 -50 37 -70 6 -20 23
-56 38 -81 14 -25 33 -65 42 -90 41 -117 109 -78 170 97 10 30 27 65 38 79 11
14 29 50 41 81 11 30 31 69 44 86 13 18 29 49 35 69 7 20 24 54 38 75 15 21
35 60 45 87 10 27 29 63 42 80 13 17 33 53 44 79 12 26 30 59 41 73 11 14 25
42 32 62 6 20 24 57 40 82 16 25 35 65 43 88 9 23 26 57 39 75 13 17 31 53 40
79 9 26 27 62 40 80 14 18 30 51 37 73 7 22 24 55 38 74 13 18 33 55 44 83 10
27 29 65 43 86 13 20 33 62 45 94 11 31 27 61 35 68 8 6 21 33 30 60 9 27 29
65 46 86 16 20 33 53 39 74 6 21 23 54 40 75 16 21 34 53 39 72 5 19 23 56 40
82 17 26 37 66 45 89 9 23 26 57 39 75 13 17 31 54 40 80 9 26 27 62 41 78 14
16 31 49 37 72 6 23 23 58 39 77 15 19 35 58 44 86 9 29 25 59 36 69 11 10 29
46 40 80 11 34 29 70 40 80 11 10 29 46 40 80 11 34 30 71 40 80 11 10 29 43
41 74 11 31 29 65 40 77 11 11 28 44 38 72 10 27 30 65 44 84 14 18 30 51 36
73 6 22 24 58 39 80 16 22 35 57 41 77 7 20 24 54 38 74 13 21 36 63 49 93 14
30 31 62 39 71 7 8 22 38 33 66 10 29 30 67 44 85 14 19 32 56 41 82 9 26 27
62 41 78 14 16 30 48 36 69 6 21 21 52 35 68 13 15 33 52 43 80 11 28 32 65
46 82 14 17 30 49 36 72 7 22 27 63 46 90 19 28 34 58 34 68 0 10 15 40 33 66
19 27 40 67 47 89 7 22 24 55 38 74 13 18 33 56 44 84 11 28 30 64 43 79 14
16 30 48 36 71 6 23 22 57 36 75 13 18 32 54 40 80 9 26 31 69 50 96 18 26 33
56 33 66 0 10 16 40 35 68 19 28 37 62 41 77 4 14 22 49 41 77 19 27 41 67 48
89 8 22 25 54 38 72 13 17 32 54 41 81 8 27 26 63 39 80 13 17 27 42 32 56 4
14 24 54 45 90 21 36 41 76 45 90 4 14 19 40 33 59 13 18 33 55 43 81 10 26
29 64 43 84 14 20 30 54 37 74 6 20 22 51 35 69 13 17 33 56 44 86 11 30 29
62 40 72 11 10 27 38 36 64 9 25 30 62 45 82 15 20 31 49 35 64 3 14 21 47 39
73 17 26 38 65 45 87 7 22 24 55 38 74 13 18 33 55 44 83 10 27 29 65 43 86
13 20 31 56 39 80 8 23 26 57 39 75 14 17 32 55 41 84 10 28 26 64 38 78 11
14 29 49 40 78 11 28 28 64 40 79 11 16 30 54 42 86 13 31 35 75 49 96 15 21
27 44 27 51 0 7 15 35 33 61 18 27 41 69 51 93 9 24 27 57 40 75 13 17 29 48
35 68 7 20 24 54 38 75 14 21 32 58 40 82 7 24 26 65 43 91 16 25 35 62 42 81
6 19 26 55 43 81 18 26 35 58 39 73 4 14 20 45 36 67 17 23 35 58 40 79 6 21
22 52 36 68 14 17 34 53 44 80 10 27 29 64 43 83 13 18 30 49 36 68 6 19 27
57 46 84 19 27 35 56 35 65 0 8 18 44 39 80 21 36 42 77 46 91 4 14 19 41 34
60 15 19 35 56 44 82 8 26 27 63 41 81 14 18 32 52 40 75 9 23 26 57 39 75 14
17 30 50 37 72 7 22 23 54 36 72 13 17 33 56 44 86 12 31 29 66 39 79 10 13
32 53 49 89 16 37 34 69 40 73 6 3 20 31 32 62 11 31 31 70 44 87 13 18 29 49
35 69 7 20 24 54 38 75 15 21 35 60 45 87 10 27 30 63 43 80 13 17 27 44 30
59 4 16 22 50 41 76 18 27 37 66 43 88 6 22 24 57 40 77 17 21 35 54 42 74 14
46 64 135 84 152 28 23 59 4 88 -57 46 -95 86 -166 106 -187 10 -12 30 -44 45
-73 14 -28 30 -54 36 -58 6 -4 22 -30 36 -58 15 -29 33 -59 40 -68 8 -9 27
-43 44 -76 16 -34 34 -64 40 -68 7 -4 24 -35 39 -69 16 -33 36 -68 46 -76 9
-8 27 -37 40 -66 12 -28 28 -55 34 -58 6 -4 22 -29 35 -55 14 -26 32 -54 42
-62 9 -8 27 -36 40 -64 12 -27 36 -67 53 -89 17 -21 31 -44 31 -50 0 -6 13
-28 30 -48 16 -20 39 -58 51 -85 11 -26 31 -59 43 -73 13 -14 29 -42 36 -63 6
-21 23 -50 36 -66 13 -16 31 -46 40 -67 19 -46 89 -145 110 -157 20 -11 40 6
70 62 22 41 53 93 119 200 11 18 30 47 42 65 12 17 34 51 49 76 14 25 35 56
45 70 10 14 29 43 40 65 12 22 33 54 46 70 39 48 89 126 122 187 17 31 35 59
41 63 6 4 23 32 39 64 16 31 37 63 46 71 9 7 26 32 37 54 11 23 34 56 49 74
16 18 29 39 29 47 0 7 15 34 34 58 19 25 41 59 50 74 8 16 22 36 31 43 9 8 29
39 45 70 16 31 36 62 45 70 9 8 28 34 41 59 14 25 42 71 62 102 20 32 51 78
67 103 17 26 40 61 52 79 12 18 33 52 47 77 13 25 34 54 46 65 12 11 31 38 42
60 12 22 34 56 49 75 16 19 29 40 29 46 0 6 18 32 40 57 22 25 40 50 40 56 0
6 13 25 29 43 15 18 37 51 49 73 11 22 30 49 42 60 12 11 30 36 40 56 10 19
26 42 35 49 9 8 29 39 45 70 16 31 36 62 45 70 9 8 28 34 41 59 14 25 47 77
74 115 57 79 60 102 25 154 -14 20 -25 42 -25 48 0 6 -14 30 -31 53 -17 24
-39 62 -49 86 -10 24 -32 62 -49 86 -17 23 -31 48 -31 54 0 7 -15 35 -34 63
-19 27 -42 67 -51 88 -9 21 -24 48 -34 59 -11 11 -30 43 -45 72 -14 28 -31 55
-37 59 -6 3 -22 30 -34 58 -13 29 -34 65 -48 82 -13 16 -30 47 -37 69 -7 22
-28 60 -47 84 -18 24 -33 49 -33 55 0 6 -18 37 -40 70 -22 32 -40 64 -40 72 0
7 -15 32 -33 56 -18 24 -40 64 -50 89 -10 25 -29 56 -42 69 -13 13 -30 39 -36
59 -7 20 -23 49 -37 66 -14 16 -33 50 -44 75 -11 25 -28 54 -38 65 -10 11 -28
43 -40 70 -12 28 -30 59 -40 70 -10 11 -28 43 -40 70 -12 28 -30 59 -40 70
-11 11 -26 36 -34 56 -8 19 -31 59 -50 88 -20 29 -36 58 -36 65 0 6 -16 30
-35 54 -18 24 -39 60 -46 80 -6 20 -24 53 -39 72 -15 19 -33 52 -39 73 -7 21
-23 50 -37 66 -13 16 -33 50 -44 77 -12 27 -30 58 -40 69 -10 11 -28 43 -40
70 -12 28 -30 59 -40 70 -10 11 -27 40 -38 65 -11 25 -30 59 -44 75 -14 17
-31 47 -37 67 -7 21 -28 56 -47 79 -19 22 -34 47 -34 54 0 7 -15 35 -33 61
-19 27 -39 64 -45 83 -7 19 -24 49 -38 68 -14 18 -34 53 -45 78 -11 24 -30 57
-43 72 -13 15 -29 45 -35 66 -7 21 -23 50 -36 65 -12 15 -34 50 -48 79 -15 28
-32 55 -38 59 -6 3 -22 31 -36 61 -13 31 -34 69 -47 87 -12 17 -29 47 -36 66
-7 19 -23 46 -36 60 -12 14 -32 47 -43 74 -12 26 -30 60 -41 74 -11 14 -29 44
-39 67 -10 23 -32 61 -50 85 -17 24 -31 49 -31 56 0 6 -16 31 -35 54 -19 23
-39 58 -45 79 -5 21 -20 46 -31 57 -12 10 -33 44 -46 74 -14 30 -31 62 -39 71
-8 9 -27 43 -44 76 -16 34 -34 64 -41 68 -6 4 -22 31 -34 59 -13 29 -34 65
-48 82 -13 16 -29 45 -36 65 -6 20 -23 51 -37 70 -14 19 -35 54 -46 79 -10 25
-28 54 -38 65 -10 11 -27 40 -38 65 -11 25 -27 52 -37 60 -10 8 -30 42 -45 75
-15 33 -35 66 -44 74 -10 8 -30 43 -46 78 -49 107 -120 114 -152 14 -10 -30
-24 -61 -32 -70 -9 -9 -27 -43 -41 -75 -14 -32 -36 -72 -49 -90 -13 -17 -31
-49 -40 -71 -10 -22 -25 -49 -36 -60 -10 -11 -28 -46 -40 -77 -12 -32 -26 -61
-32 -64 -6 -4 -24 -36 -40 -72 -16 -35 -40 -81 -53 -101 -13 -20 -31 -56 -40
-81 -9 -24 -24 -54 -35 -65 -10 -11 -28 -42 -39 -68 -11 -26 -32 -63 -46 -81
-14 -18 -30 -47 -36 -65 -7 -18 -27 -58 -45 -89 -19 -31 -34 -61 -34 -68 0 -6
-15 -34 -33 -60 -19 -27 -40 -67 -47 -89 -7 -22 -23 -54 -35 -71 -13 -16 -36
-60 -53 -96 -16 -36 -34 -68 -40 -72 -6 -3 -20 -32 -32 -64 -12 -31 -30 -66
-40 -77 -11 -11 -26 -40 -35 -65 -9 -24 -29 -65 -44 -90 -16 -25 -36 -62 -45
-83 -9 -22 -27 -52 -40 -68 -13 -16 -30 -45 -37 -66 -7 -21 -27 -60 -46 -87
-18 -26 -33 -55 -33 -64 0 -9 -18 -45 -39 -81 -21 -36 -42 -77 -46 -90 -4 -13
-20 -45 -36 -70 -16 -25 -34 -62 -39 -82 -6 -20 -23 -53 -39 -73 -17 -21 -35
-54 -42 -74 -6 -20 -22 -52 -36 -69 -13 -18 -31 -52 -39 -75 -8 -24 -26 -60
-39 -80 -14 -21 -33 -59 -43 -86 -11 -28 -30 -65 -44 -83 -14 -19 -32 -55 -42
-80 -9 -26 -25 -54 -36 -64 -11 -10 -26 -39 -35 -66 -9 -26 -29 -64 -45 -84
-16 -20 -34 -53 -41 -73 -6 -20 -23 -52 -36 -70 -14 -19 -34 -57 -44 -84 -10
-28 -27 -61 -38 -72 -11 -12 -29 -45 -40 -75 -11 -30 -29 -64 -41 -76 -11 -12
-29 -45 -39 -73 -10 -27 -30 -65 -43 -84 -14 -18 -32 -53 -40 -78 -8 -25 -27
-62 -41 -83 -14 -21 -31 -55 -38 -75 -6 -20 -22 -51 -35 -68 -13 -18 -35 -56
-49 -85 -15 -30 -48 -94 -75 -144 -26 -49 -56 -106 -65 -125 -50 -101 -63
-128 -102 -198 -22 -43 -54 -103 -71 -134 -16 -31 -39 -69 -50 -83 -12 -15
-26 -43 -33 -63 -6 -20 -23 -52 -37 -71 -13 -18 -33 -55 -44 -83 -10 -27 -29
-65 -43 -86 -13 -20 -31 -56 -39 -80 -8 -23 -26 -57 -39 -75 -14 -17 -30 -50
-37 -72 -7 -22 -25 -56 -41 -76 -15 -19 -31 -48 -35 -63 -3 -15 -21 -48 -39
-74 -17 -26 -37 -64 -44 -84 -7 -20 -21 -48 -32 -62 -11 -14 -31 -50 -45 -82
-14 -31 -35 -70 -48 -88 -13 -17 -29 -48 -36 -69 -6 -21 -23 -51 -37 -67 -13
-17 -33 -52 -43 -79 -10 -27 -29 -64 -43 -83 -13 -18 -30 -51 -37 -73 -7 -22
-26 -58 -42 -80 -15 -22 -33 -55 -38 -75 -5 -19 -25 -60 -45 -90 -19 -30 -35
-62 -35 -71 0 -9 -15 -39 -33 -65 -19 -27 -39 -66 -46 -86 -7 -20 -25 -53 -42
-74 -16 -20 -34 -55 -40 -78 -6 -22 -24 -57 -39 -76 -15 -19 -33 -55 -40 -80
-7 -25 -24 -61 -40 -80 -15 -19 -35 -58 -44 -86 -9 -29 -26 -60 -36 -69 -11
-10 -29 -43 -40 -73 -12 -30 -32 -68 -45 -84 -14 -16 -29 -46 -35 -67 -5 -21
-24 -55 -40 -76 -16 -21 -35 -56 -41 -79 -6 -22 -22 -57 -35 -77 -14 -20 -34
-60 -45 -89 -11 -30 -29 -65 -41 -79 -11 -14 -33 -53 -49 -86 -32 -65 -53
-103 -110 -205 -20 -36 -40 -76 -44 -90 -4 -14 -18 -39 -31 -56 -13 -17 -32
-55 -43 -84 -11 -29 -29 -63 -41 -75 -11 -12 -29 -44 -39 -71 -10 -27 -32 -71
-49 -98 -18 -28 -32 -55 -32 -61 0 -6 -15 -37 -34 -68 -19 -31 -40 -74 -46
-94 -7 -21 -23 -53 -37 -70 -13 -18 -30 -52 -39 -75 -8 -23 -27 -63 -43 -88
-16 -25 -34 -62 -40 -82 -7 -20 -23 -54 -37 -74 -14 -20 -33 -55 -41 -78 -9
-22 -32 -63 -50 -90 -18 -26 -33 -56 -33 -66 0 -10 -15 -40 -34 -68 -19 -27
-40 -69 -46 -93 -6 -24 -25 -62 -42 -83 -18 -22 -37 -63 -44 -94 -28 -122
-122 -138 -153 -27 -5 20 -23 57 -40 83 -16 26 -35 67 -41 92 -7 24 -25 63
-40 86 -16 22 -32 54 -36 70 -3 16 -23 58 -44 94 -21 36 -41 79 -45 96 -3 17
-17 47 -31 65 -13 19 -31 56 -39 83 -8 27 -27 64 -41 83 -15 19 -33 56 -41 81
-7 26 -27 63 -42 83 -16 20 -35 56 -41 80 -6 24 -25 64 -41 89 -15 25 -35 65
-44 89 -8 23 -24 55 -35 71 -12 16 -30 55 -41 87 -10 32 -28 70 -38 84 -11 14
-26 49 -35 78 -8 29 -26 65 -40 81 -13 16 -32 53 -42 82 -9 29 -29 69 -44 90
-15 21 -32 57 -38 80 -6 24 -22 58 -36 77 -14 19 -33 57 -42 85 -9 28 -28 66
-41 84 -13 18 -32 54 -40 80 -9 26 -28 65 -44 87 -15 23 -32 59 -38 80 -6 22
-24 60 -41 84 -16 24 -34 59 -39 78 -5 19 -23 55 -39 81 -16 26 -35 65 -42 87
-7 22 -25 60 -40 85 -15 25 -33 63 -40 85 -7 22 -28 61 -45 87 -18 26 -36 59
-39 74 -4 15 -20 46 -36 68 -15 23 -33 62 -40 86 -6 25 -22 61 -36 80 -13 20
-31 58 -40 85 -10 28 -30 68 -45 90 -16 22 -35 63 -44 91 -8 28 -24 59 -35 69
-11 10 -29 42 -40 71 -11 30 -31 71 -44 92 -13 20 -31 60 -40 88 -9 29 -26 60
-37 70 -11 9 -26 41 -35 70 -8 29 -28 69 -44 89 -16 21 -32 53 -36 72 -4 19
-21 56 -40 82 -18 27 -38 68 -44 92 -7 24 -23 59 -37 77 -13 18 -32 54 -40 80
-9 26 -29 64 -44 84 -14 21 -31 57 -37 81 -6 24 -25 60 -41 81 -16 20 -32 55
-36 76 -4 23 -21 57 -40 79 -18 22 -37 60 -44 85 -6 25 -24 60 -40 78 -15 18
-35 55 -44 81 -9 26 -28 62 -42 78 -14 17 -28 48 -31 70 -4 21 -22 62 -40 91
-19 29 -39 69 -44 88 -5 20 -23 53 -39 75 -16 22 -34 58 -40 80 -6 22 -25 60
-41 84 -17 24 -34 60 -40 80 -5 20 -21 52 -35 71 -14 19 -33 58 -41 85 -8 28
-28 70 -44 94 -17 24 -35 61 -40 82 -6 21 -22 52 -36 69 -14 17 -32 51 -40 76
-7 25 -26 62 -42 82 -16 20 -35 55 -42 77 -7 22 -25 60 -40 85 -16 25 -34 65
-40 90 -6 25 -23 61 -36 82 -14 20 -32 58 -40 84 -8 27 -25 64 -39 84 -13 19
-33 60 -45 91 -11 31 -29 64 -40 74 -10 9 -26 39 -35 65 -9 26 -27 62 -41 81
-13 18 -31 56 -39 83 -8 27 -26 64 -41 83 -14 18 -32 55 -41 81 -9 26 -24 56
-34 68 -11 11 -30 48 -43 82 -14 35 -36 76 -50 93 -14 16 -31 49 -37 72 -6 23
-22 57 -35 75 -14 17 -32 56 -41 85 -8 28 -26 67 -40 85 -13 18 -32 54 -40 80
-9 26 -29 65 -44 87 -15 22 -32 58 -38 80 -6 22 -22 56 -35 74 -14 19 -33 57
-42 85 -9 28 -27 66 -41 84 -13 17 -31 56 -40 85 -8 28 -26 67 -40 85 -13 18
-31 54 -40 80 -9 26 -27 62 -41 80 -13 19 -33 57 -43 84 -10 28 -29 67 -43 87
-13 20 -30 54 -36 76 -7 22 -24 56 -36 75 -13 19 -31 57 -41 85 -9 27 -31 72
-50 99 -18 26 -33 56 -33 65 0 9 -18 45 -40 81 -22 36 -40 72 -40 81 0 9 -15
39 -34 67 -19 27 -40 69 -46 93 -6 24 -24 60 -40 80 -16 20 -34 56 -40 80 -6
24 -24 62 -40 84 -15 22 -33 61 -40 85 -6 25 -23 57 -36 71 -14 14 -34 50 -45
79 -11 29 -30 67 -43 84 -13 17 -29 49 -36 71 -7 22 -25 60 -40 85 -15 25 -33
63 -40 85 -7 22 -26 58 -42 80 -15 22 -33 57 -39 79 -6 21 -26 61 -45 88 -19
28 -34 58 -34 66 0 9 -16 42 -35 74 -20 31 -42 77 -49 102 -7 24 -25 59 -39
77 -14 19 -30 52 -36 74 -6 22 -24 58 -39 80 -16 22 -35 58 -42 80 -7 22 -23
55 -37 72 -13 18 -31 52 -39 75 -8 24 -26 60 -39 80 -14 21 -33 59 -43 86 -11
28 -31 65 -44 83 -14 19 -31 52 -38 74 -7 22 -23 55 -37 73 -13 18 -31 54 -40
80 -9 26 -27 62 -40 80 -13 17 -33 57 -43 87 -10 30 -30 70 -44 87 -13 18 -29
51 -35 73 -6 22 -22 56 -35 76 -14 20 -34 59 -44 85 -10 27 -33 71 -50 98 -18
28 -32 57 -32 66 0 9 -16 40 -35 70 -19 30 -40 73 -46 95 -12 46 -77 151 -99
162 -8 3 -990 8 -2182 9 -2055 2 -2167 2 -2182 -15z"/>
  </g>
  <g transform="translate(243.0,395.0) translate(0.000000,2744.000000) scale(0.100000,-0.100000)" fill="#727565">
    <path d="M23570 15106 c-3 -2 -61 -7 -129 -11 -150 -7 -184 -23 -260 -120 -27
-34 -69 -85 -93 -113 -24 -27 -65 -78 -93 -112 -60 -75 -184 -220 -268 -313
-34 -38 -68 -79 -76 -90 -8 -12 -28 -38 -45 -58 -17 -20 -56 -66 -86 -103 -30
-38 -86 -105 -125 -151 -69 -81 -191 -233 -230 -284 -10 -14 -51 -63 -90 -107
-38 -45 -90 -107 -115 -139 -25 -32 -57 -71 -71 -89 -14 -17 -36 -47 -49 -66
-13 -19 -35 -47 -49 -61 -14 -14 -44 -50 -66 -78 -22 -29 -58 -74 -80 -100
-22 -27 -60 -74 -85 -106 -25 -31 -61 -76 -80 -100 -19 -24 -55 -69 -80 -100
-25 -31 -62 -77 -82 -102 -21 -24 -38 -48 -38 -52 0 -5 -36 -50 -80 -100 -44
-51 -80 -96 -80 -101 0 -4 -29 -40 -65 -80 -36 -40 -65 -80 -65 -90 0 -47 -54
-45 1439 -50 l1406 -5 95 -27 c52 -15 122 -30 155 -33 89 -10 144 -23 205 -50
30 -13 80 -31 110 -40 30 -9 62 -23 71 -31 9 -8 41 -24 70 -35 30 -12 70 -33
89 -47 19 -15 49 -34 66 -43 102 -52 336 -286 412 -413 9 -16 31 -48 48 -71
18 -23 39 -67 48 -97 9 -31 23 -61 31 -68 25 -21 34 -44 49 -124 8 -41 24 -93
36 -116 72 -142 73 -792 1 -958 -16 -37 -34 -91 -40 -121 -6 -30 -24 -77 -40
-105 -16 -28 -34 -69 -41 -91 -7 -22 -25 -56 -40 -75 -15 -19 -35 -52 -44 -74
-9 -21 -31 -56 -49 -77 -17 -20 -50 -61 -72 -90 -22 -29 -53 -67 -70 -85 -16
-17 -39 -42 -51 -55 -38 -43 -168 -164 -196 -182 -15 -9 -38 -26 -50 -38 -45
-40 -144 -107 -183 -123 -22 -9 -49 -26 -60 -36 -12 -11 -45 -28 -75 -38 -30
-11 -72 -31 -93 -45 -20 -14 -56 -28 -80 -32 -23 -4 -81 -22 -129 -41 -48 -19
-96 -34 -106 -34 -10 0 -97 -13 -193 -29 -122 -21 -226 -31 -344 -35 -94 -3
-1821 -8 -3840 -11 -3449 -6 -3672 -7 -3700 -23 -18 -11 -44 -45 -68 -92 -39
-74 -84 -158 -157 -295 -20 -38 -56 -106 -80 -150 -23 -44 -60 -114 -83 -155
-22 -41 -58 -109 -79 -150 -22 -41 -59 -111 -83 -155 -24 -44 -59 -112 -78
-151 -19 -39 -39 -74 -45 -78 -6 -3 -20 -31 -32 -62 -11 -31 -31 -70 -44 -87
-13 -18 -31 -52 -40 -76 -10 -25 -26 -57 -36 -71 -11 -15 -28 -52 -40 -83 -11
-30 -29 -66 -39 -79 -10 -13 -33 -52 -50 -88 -51 -105 -115 -226 -127 -241 -6
-8 -16 -29 -22 -46 -6 -18 -24 -52 -40 -75 -16 -24 -35 -60 -41 -81 -7 -20
-28 -63 -47 -94 -19 -31 -34 -62 -34 -69 0 -6 -15 -34 -34 -61 -18 -26 -36
-57 -40 -69 -3 -11 -22 -44 -41 -74 -19 -30 -40 -70 -46 -89 -6 -20 -22 -50
-35 -68 -13 -17 -33 -54 -44 -82 -11 -28 -31 -68 -44 -88 -14 -21 -32 -56 -39
-78 -8 -22 -29 -62 -46 -90 -17 -27 -31 -54 -31 -60 0 -6 -16 -34 -35 -61 -19
-27 -40 -65 -46 -84 -7 -19 -20 -47 -30 -61 -10 -14 -34 -59 -53 -100 -19 -41
-41 -85 -49 -99 -9 -14 -27 -50 -42 -80 -15 -30 -46 -90 -69 -134 -22 -43 -49
-95 -59 -115 -10 -20 -27 -52 -37 -71 -11 -19 -33 -62 -49 -95 -16 -33 -39
-73 -51 -88 -12 -16 -31 -51 -42 -79 -10 -28 -29 -65 -42 -82 -12 -17 -29 -47
-36 -66 -8 -19 -29 -57 -47 -84 -18 -26 -33 -54 -33 -60 0 -7 -14 -34 -32 -62
-17 -27 -40 -71 -50 -98 -10 -27 -29 -63 -42 -80 -12 -17 -29 -47 -36 -66 -7
-19 -24 -50 -37 -67 -13 -18 -30 -50 -38 -70 -17 -49 -104 -220 -131 -258 -11
-17 -28 -51 -37 -76 -10 -25 -28 -61 -42 -79 -13 -18 -30 -49 -36 -69 -7 -20
-21 -48 -31 -64 -11 -15 -30 -54 -43 -87 -13 -33 -32 -72 -43 -88 -11 -15 -32
-52 -47 -82 -15 -30 -46 -91 -70 -135 -24 -44 -55 -105 -70 -135 -14 -30 -35
-71 -46 -90 -11 -19 -33 -64 -49 -98 -17 -35 -38 -76 -48 -90 -10 -15 -26 -47
-36 -71 -9 -24 -27 -57 -40 -75 -13 -17 -29 -49 -36 -71 -7 -22 -24 -55 -38
-74 -13 -18 -33 -55 -44 -83 -10 -27 -29 -65 -43 -86 -13 -20 -30 -53 -36 -72
-6 -19 -23 -50 -37 -69 -14 -18 -33 -55 -43 -81 -10 -26 -29 -64 -43 -84 -14
-20 -30 -54 -37 -74 -6 -20 -20 -48 -29 -62 -10 -14 -33 -56 -52 -95 -57 -114
-112 -218 -130 -245 -10 -14 -24 -44 -32 -67 -8 -22 -26 -58 -40 -80 -14 -21
-31 -54 -37 -73 -6 -19 -23 -50 -37 -69 -14 -18 -33 -56 -44 -83 -10 -28 -30
-65 -43 -83 -14 -17 -30 -47 -36 -66 -7 -19 -20 -45 -29 -59 -10 -14 -29 -47
-44 -75 -15 -27 -38 -65 -51 -84 -50 -68 -27 -104 63 -102 31 1 764 2 1629 4
l1571 2 26 24 c27 25 107 166 121 211 4 14 20 45 36 70 16 25 35 65 43 88 9
23 26 57 39 75 14 17 30 50 37 72 7 22 25 56 41 76 15 19 31 48 35 63 3 15 21
48 39 74 17 26 37 63 44 83 6 20 23 51 36 69 14 18 32 54 42 79 9 25 31 67 49
93 17 26 34 59 38 73 4 15 22 49 41 77 19 28 35 56 35 63 0 7 15 35 33 61 19
27 39 66 46 86 7 20 23 52 35 71 13 19 37 61 53 93 78 154 112 216 126 232 8
9 20 35 27 57 7 22 24 55 37 73 14 19 33 56 43 83 10 27 30 62 43 79 14 16 31
46 37 67 7 21 24 53 38 72 13 18 33 55 44 83 10 27 29 65 43 86 13 20 30 53
36 72 6 19 22 49 36 67 13 18 32 53 43 79 11 26 31 59 44 75 14 16 30 45 37
66 6 21 21 51 33 68 25 36 136 255 136 270 0 5 14 30 30 55 16 25 35 61 42 80
6 19 26 56 43 82 18 26 35 58 39 71 3 14 22 48 41 77 19 29 35 58 35 65 0 7
15 35 33 61 19 27 39 66 46 86 7 20 23 53 37 73 14 20 38 65 55 98 42 84 89
173 121 227 14 25 29 56 33 70 4 13 23 47 41 73 19 27 34 55 34 62 0 7 15 36
34 64 19 28 40 67 46 88 7 21 24 53 38 72 13 18 33 56 44 84 11 28 28 63 38
77 10 14 26 46 36 71 9 24 29 60 45 80 15 20 32 54 38 76 6 22 24 57 40 77 17
21 37 59 46 85 9 27 25 57 35 66 11 10 29 43 41 74 11 31 29 65 40 77 10 11
30 49 44 84 30 76 85 138 129 144 17 3 674 8 1459 10 1415 6 1428 6 1467 -14
22 -11 47 -33 57 -48 16 -25 63 -83 117 -142 13 -14 35 -44 50 -65 15 -22 42
-62 61 -90 46 -68 84 -119 123 -165 33 -39 50 -60 111 -147 84 -118 134 -183
141 -183 4 0 26 -28 49 -62 56 -87 98 -145 151 -212 55 -70 109 -144 154 -211
19 -28 42 -57 51 -65 9 -7 25 -30 35 -49 10 -20 28 -45 40 -56 12 -11 31 -36
41 -55 11 -19 35 -55 54 -80 19 -25 49 -64 67 -88 18 -24 47 -60 64 -80 17
-20 42 -58 57 -84 15 -26 34 -51 41 -55 7 -4 22 -22 32 -39 18 -29 34 -50 110
-142 17 -20 41 -55 54 -77 13 -22 37 -57 54 -77 17 -20 46 -56 64 -80 18 -24
49 -63 69 -88 20 -25 47 -61 60 -80 33 -49 100 -138 153 -205 62 -78 123 -160
165 -222 19 -28 40 -55 45 -58 6 -4 22 -23 36 -43 14 -21 43 -62 65 -92 22
-30 52 -73 67 -95 14 -22 42 -58 62 -81 19 -22 43 -54 53 -70 9 -16 37 -56 62
-89 25 -33 60 -83 79 -110 19 -28 41 -57 51 -65 9 -7 22 -25 30 -40 8 -15 29
-45 47 -67 18 -22 41 -54 51 -69 19 -32 79 -114 147 -199 49 -62 104 -137 147
-200 15 -22 38 -52 51 -66 24 -28 68 -88 123 -171 17 -27 34 -48 39 -48 5 0
19 -17 31 -37 12 -21 36 -55 53 -75 17 -20 51 -66 76 -103 25 -37 59 -83 75
-103 17 -20 43 -55 58 -77 15 -22 48 -67 72 -100 25 -33 61 -82 80 -110 19
-27 53 -72 75 -100 35 -44 69 -91 158 -222 12 -18 41 -45 65 -60 l42 -28 1983
-1 1983 -1 15 21 c19 31 4 78 -43 130 -40 44 -90 107 -175 222 -29 39 -73 97
-98 129 -25 32 -63 82 -85 111 -84 112 -169 220 -195 249 -15 17 -40 48 -54
70 -47 70 -112 156 -236 310 -22 28 -56 73 -76 100 -49 69 -111 153 -164 220
-25 32 -61 79 -80 105 -19 26 -55 73 -80 104 -25 32 -55 72 -68 89 -13 18 -34
43 -46 57 -13 14 -35 43 -50 65 -32 49 -97 137 -153 207 -24 29 -61 76 -83
103 -22 28 -58 75 -80 105 -22 30 -59 78 -81 105 -68 84 -122 154 -159 204
-19 27 -55 74 -80 105 -25 32 -55 71 -67 87 -12 17 -37 47 -55 68 -18 21 -41
51 -50 67 -10 16 -34 49 -54 74 -19 25 -48 61 -62 80 -15 19 -40 50 -57 69
-29 33 -53 66 -120 163 -16 24 -45 61 -65 84 -19 22 -53 64 -75 94 -22 29 -56
72 -75 95 -19 23 -53 66 -75 95 -22 29 -58 75 -80 101 -44 53 -89 110 -165
209 -111 145 -126 164 -162 203 -21 23 -38 44 -38 48 0 4 -17 28 -37 53 -21
25 -58 73 -83 107 -25 33 -63 83 -85 110 -79 97 -93 115 -148 189 -30 41 -72
95 -91 120 -81 101 -93 116 -116 150 -13 19 -37 51 -54 71 -17 20 -67 82 -111
139 -44 56 -97 122 -117 147 -21 24 -38 49 -38 54 0 6 -24 36 -54 67 -103 110
-103 162 1 162 68 0 315 38 383 59 36 11 94 25 130 31 109 18 163 32 203 52
20 10 74 25 120 34 45 8 102 27 127 40 25 14 74 32 110 40 36 9 88 28 115 44
28 15 70 33 95 40 25 6 65 24 90 40 25 16 64 33 87 39 23 7 56 23 72 37 16 14
52 32 78 41 26 9 64 29 83 43 19 15 50 32 68 39 19 6 47 22 64 36 17 14 49 35
72 47 22 11 56 34 74 49 18 16 38 29 44 29 6 0 30 17 53 38 24 20 73 57 110
82 76 52 143 103 200 154 22 20 62 55 89 79 94 81 299 283 388 382 151 167
162 180 198 229 19 26 49 64 66 84 17 21 39 51 47 69 9 17 34 52 54 77 50 59
78 101 104 156 12 25 33 58 47 75 14 16 33 50 44 75 11 25 28 54 38 65 11 11
30 45 44 76 13 30 36 72 49 93 14 20 31 53 38 73 6 20 24 57 40 81 15 24 31
58 34 76 4 17 20 54 36 83 15 28 35 81 43 117 9 36 27 83 41 105 16 24 30 64
36 107 7 41 22 89 40 120 18 31 32 78 40 125 6 40 24 121 39 179 16 58 34 148
40 200 7 52 23 164 36 249 35 217 44 355 44 676 0 332 -11 486 -44 644 -14 65
-30 165 -35 223 -6 57 -13 113 -17 124 -3 10 -17 46 -29 79 -13 33 -26 89 -30
125 -4 36 -20 101 -35 145 -16 44 -36 116 -45 160 -10 44 -30 105 -46 135 -16
30 -34 73 -39 96 -5 22 -23 60 -39 85 -17 24 -35 67 -41 94 -6 27 -23 65 -37
83 -14 19 -32 55 -39 81 -8 25 -27 64 -43 86 -15 22 -34 58 -41 80 -7 22 -26
55 -41 73 -16 18 -36 49 -44 70 -9 20 -24 46 -34 57 -10 11 -28 38 -39 60 -11
22 -30 49 -42 60 -12 11 -31 38 -42 60 -12 22 -34 55 -49 73 -16 18 -29 37
-29 42 0 5 -36 51 -80 102 -45 51 -97 113 -118 137 -45 54 -338 347 -413 414
-102 91 -227 192 -271 220 -59 37 -107 71 -143 100 -16 13 -46 32 -65 42 -19
10 -50 31 -69 48 -19 16 -50 36 -70 44 -19 8 -49 25 -65 38 -17 12 -47 28 -66
34 -19 6 -52 23 -73 36 -20 14 -61 35 -90 46 -28 11 -62 29 -73 40 -12 11 -49
29 -82 39 -33 11 -84 32 -114 48 -29 16 -75 35 -102 41 -27 7 -65 21 -86 31
-20 10 -82 30 -136 44 -54 14 -125 34 -158 46 -32 11 -100 27 -150 35 -50 9
-123 27 -162 40 -48 17 -122 30 -220 40 -82 8 -201 24 -264 36 -107 20 -152
22 -615 26 -275 2 -503 2 -505 -1z"/>
  </g>
  <g transform="translate(243.0,395.0) translate(0.000000,2744.000000) scale(0.100000,-0.100000)" fill="#ffb54b">
    <path d="M30195 27309 c-22 -10 -49 -19 -59 -19 -11 0 -47 -15 -80 -34 -34
-19 -90 -42 -126 -52 -36 -9 -85 -27 -110 -39 -25 -12 -70 -30 -100 -40 -30
-9 -73 -28 -95 -40 -23 -13 -76 -31 -119 -39 -43 -9 -96 -26 -118 -37 -39 -20
-179 -73 -293 -111 -136 -45 -255 -92 -350 -138 -33 -16 -85 -34 -115 -40 -30
-6 -84 -24 -120 -40 -105 -47 -191 -81 -255 -101 -145 -46 -274 -94 -368 -138
-34 -16 -82 -32 -107 -36 -45 -7 -179 -59 -298 -116 -35 -16 -96 -36 -135 -45
-39 -8 -94 -25 -122 -38 -27 -13 -68 -29 -90 -36 -22 -7 -66 -26 -98 -42 -32
-16 -84 -34 -115 -39 -52 -9 -101 -29 -302 -121 -36 -16 -96 -36 -133 -44 -38
-8 -99 -27 -135 -43 -37 -16 -78 -32 -92 -36 -14 -4 -59 -22 -101 -41 -41 -18
-100 -39 -130 -45 -30 -6 -79 -24 -109 -39 -31 -16 -76 -33 -100 -40 -25 -7
-66 -23 -93 -37 -27 -13 -89 -33 -138 -43 -49 -11 -109 -31 -132 -45 -24 -14
-50 -25 -58 -25 -8 0 -44 -15 -80 -34 -36 -18 -97 -41 -136 -50 -38 -8 -101
-29 -139 -45 -38 -16 -89 -34 -114 -41 -24 -7 -69 -24 -100 -40 -30 -15 -75
-31 -100 -35 -43 -7 -161 -52 -300 -115 -62 -28 -108 -42 -191 -55 -43 -6 -62
-25 -57 -56 5 -36 46 -57 177 -89 68 -17 205 -58 304 -91 98 -33 229 -70 290
-83 62 -13 133 -33 160 -45 26 -11 71 -27 100 -35 28 -8 82 -26 119 -40 36
-14 108 -32 160 -41 54 -10 110 -26 133 -40 22 -13 79 -34 125 -48 47 -14 108
-34 135 -45 28 -10 80 -25 117 -31 36 -6 92 -23 123 -37 32 -13 86 -32 121
-40 144 -33 190 -85 135 -155 -10 -13 -48 -69 -85 -124 -36 -55 -92 -135 -123
-179 -32 -43 -72 -101 -90 -129 -18 -28 -56 -81 -84 -116 -29 -36 -65 -88 -82
-115 -16 -28 -38 -62 -48 -76 -81 -106 -100 -131 -118 -166 -12 -21 -46 -73
-76 -114 -30 -41 -66 -95 -80 -120 -14 -25 -48 -74 -75 -110 -27 -36 -67 -94
-89 -130 -22 -36 -58 -87 -80 -115 -22 -27 -52 -71 -66 -97 -14 -26 -38 -62
-53 -80 -50 -59 -122 -160 -122 -171 0 -7 -16 -32 -35 -56 -19 -24 -35 -48
-35 -52 0 -5 -13 -23 -30 -42 -16 -19 -42 -57 -57 -85 -15 -28 -53 -84 -83
-124 -31 -40 -66 -90 -78 -111 -12 -21 -48 -72 -79 -115 -32 -42 -69 -96 -83
-119 -14 -23 -50 -75 -81 -115 -31 -40 -64 -89 -74 -108 -10 -19 -29 -48 -42
-65 -51 -62 -123 -168 -123 -180 0 -6 -15 -29 -33 -51 -39 -46 -90 -117 -132
-183 -65 -104 -94 -147 -118 -176 -13 -16 -30 -41 -37 -55 -7 -14 -39 -59 -70
-100 -31 -41 -65 -91 -75 -110 -9 -19 -27 -46 -40 -60 -20 -23 -64 -86 -161
-235 -21 -33 -54 -76 -71 -96 -18 -20 -41 -54 -50 -75 -10 -22 -30 -55 -45
-74 -55 -71 -94 -126 -117 -165 -29 -48 -76 -115 -112 -158 -15 -18 -38 -54
-53 -82 -24 -46 -57 -93 -119 -170 -13 -16 -34 -48 -46 -70 -12 -22 -44 -69
-71 -105 -27 -36 -57 -78 -66 -95 -9 -16 -47 -72 -83 -123 -36 -51 -77 -112
-91 -136 -14 -23 -35 -56 -48 -72 -57 -73 -93 -127 -117 -173 -14 -28 -38 -65
-53 -83 -32 -38 -77 -102 -116 -168 -15 -25 -47 -72 -72 -105 -24 -33 -52 -73
-62 -89 -9 -15 -27 -42 -39 -60 -12 -17 -36 -53 -54 -81 -17 -27 -51 -77 -75
-110 -24 -33 -57 -80 -73 -105 -17 -25 -41 -61 -56 -80 -23 -31 -91 -133 -192
-285 -18 -27 -56 -84 -85 -125 -29 -41 -66 -97 -81 -125 -15 -27 -38 -61 -51
-75 -23 -25 -86 -116 -122 -176 -10 -18 -39 -58 -64 -90 -24 -32 -62 -88 -84
-124 -21 -36 -64 -99 -95 -141 -31 -43 -69 -99 -84 -125 -15 -27 -48 -78 -74
-114 -26 -36 -58 -84 -72 -106 -14 -23 -46 -70 -71 -104 -25 -34 -61 -88 -80
-120 -19 -32 -61 -92 -92 -133 -31 -41 -66 -92 -78 -113 -11 -22 -41 -66 -65
-99 -24 -33 -56 -80 -71 -105 -15 -25 -35 -56 -45 -70 -26 -35 -131 -192 -227
-340 -45 -69 -109 -163 -142 -210 -33 -47 -75 -108 -93 -137 -18 -28 -52 -79
-77 -113 -25 -34 -58 -84 -75 -110 -29 -48 -83 -130 -208 -318 -94 -142 -115
-173 -199 -294 -43 -62 -78 -117 -78 -123 0 -6 -17 -31 -37 -57 -21 -26 -53
-68 -71 -95 -114 -168 -181 -271 -212 -323 -19 -33 -57 -97 -85 -143 -27 -45
-57 -98 -66 -118 -19 -41 -29 -46 -194 -93 -131 -36 -289 -112 -366 -174 -109
-87 -209 -188 -235 -236 -15 -28 -37 -62 -50 -76 -12 -14 -32 -49 -43 -77 -12
-29 -31 -77 -43 -105 -21 -49 -23 -69 -23 -243 l0 -190 41 -117 c23 -64 53
-131 67 -148 15 -17 35 -50 45 -73 18 -41 114 -144 197 -212 61 -50 264 -152
363 -181 113 -35 388 -40 457 -10 22 9 65 26 95 36 173 59 267 116 377 227 67
68 112 122 124 151 11 24 28 56 39 70 64 81 101 192 115 342 7 80 17 154 21
164 23 57 99 165 174 245 40 43 107 126 119 149 6 11 43 58 82 103 39 46 82
99 95 118 13 20 42 59 64 86 22 28 59 75 82 105 23 30 67 82 98 116 30 34 75
87 100 119 25 32 56 70 70 84 14 14 41 47 60 73 118 161 162 218 225 290 39
45 79 96 90 113 20 31 91 117 231 278 39 45 79 98 89 117 10 19 48 69 84 111
36 42 89 104 116 139 28 34 57 70 65 79 9 9 29 35 45 56 16 22 51 63 78 91 26
27 64 73 85 101 36 49 94 120 232 281 36 43 77 93 90 112 13 19 53 69 89 111
79 91 195 236 234 292 26 36 90 113 207 247 22 25 55 63 73 85 19 22 50 58 70
80 19 22 43 54 53 71 21 34 55 76 164 205 41 49 92 110 113 136 57 73 124 154
160 193 38 41 218 262 262 321 17 22 65 81 108 130 42 50 77 95 77 100 0 5 33
44 73 87 41 42 79 86 84 96 12 22 114 146 236 286 42 50 77 94 77 99 0 4 30
41 66 82 36 41 78 93 94 116 15 23 40 55 56 71 16 15 49 55 74 87 25 33 74 93
110 135 36 41 74 89 85 105 16 26 76 98 199 240 55 63 90 107 116 145 13 19
55 72 94 116 39 45 93 110 121 145 27 35 93 116 145 179 53 63 107 131 120
150 13 19 56 72 95 117 38 45 88 105 110 133 44 58 85 108 193 237 106 128
156 190 209 262 27 35 74 91 107 125 32 33 73 84 91 111 18 28 57 77 87 110
30 33 65 76 78 95 13 19 47 62 76 95 28 33 63 78 76 100 14 22 57 75 94 117
65 73 95 109 196 237 24 29 70 85 103 123 33 38 74 89 90 112 61 87 81 112
230 289 34 40 72 88 85 107 14 19 72 89 130 156 58 67 125 147 150 179 25 31
66 82 92 112 26 31 67 81 90 112 23 31 70 88 103 126 34 39 69 83 80 100 10
16 39 51 63 77 67 72 95 66 151 -31 22 -36 48 -74 59 -84 11 -10 28 -39 37
-65 10 -26 30 -65 45 -87 15 -22 36 -58 47 -80 11 -22 30 -58 41 -80 12 -22
31 -60 42 -85 10 -25 40 -79 65 -120 25 -41 60 -104 78 -141 19 -36 43 -78 54
-95 34 -48 101 -168 108 -191 7 -24 100 -189 119 -213 7 -8 37 -62 67 -119 62
-119 88 -151 123 -151 31 0 31 0 62 117 61 229 93 421 120 702 9 96 22 197 30
225 19 68 30 128 49 266 9 63 27 160 40 215 13 55 29 154 35 220 6 66 24 185
40 265 16 80 34 183 40 229 6 47 24 148 40 225 16 78 34 196 40 263 12 148 26
248 39 288 11 33 34 159 51 280 6 44 22 121 36 170 14 56 28 145 34 235 6 80
22 192 35 250 13 58 38 179 54 270 16 91 36 197 45 235 8 39 22 153 31 254 9
107 23 200 31 220 9 20 26 102 40 183 13 81 33 188 44 239 12 51 30 172 41
268 11 96 30 222 44 280 13 59 29 147 35 196 5 50 14 106 20 125 13 47 13 93
-2 108 -18 18 -97 13 -143 -9z"/>
  </g>
</svg>
